<svg width="300" height="56" fill="none" xmlns="http://www.w3.org/2000/svg"><path d="M263.897 20.86c-2.557 0-4.881.698-6.663 1.862v-1.396h-6.353V56h6.353V43.278c1.782 1.164 4.106 1.862 6.663 1.862 6.43 0 11.621-5.352 11.621-12.101 0-6.749-5.191-12.179-11.621-12.179zm-.93 18.772c-2.092 0-4.183-.698-5.733-2.87v-7.447c1.55-2.172 3.641-2.87 5.733-2.87 3.642 0 6.198 3.103 6.198 6.671 0 3.413-2.556 6.516-6.198 6.516zm-148.131-18.85c-7.282 0-12.396 5.043-12.396 12.257 0 7.136 5.036 12.178 12.396 12.178 7.283 0 12.319-5.042 12.319-12.178 0-7.214-5.036-12.257-12.319-12.257zm0 18.618c-3.564 0-5.965-2.638-5.965-6.361 0-3.801 2.401-6.439 5.965-6.439 3.487 0 5.966 2.638 5.966 6.439 0 3.8-2.479 6.36-5.966 6.36zm178.036-8.688l-4.183-.698c-2.247-.388-2.867-1.397-2.867-2.328 0-1.086 1.162-1.939 3.641-1.939 2.247 0 4.262.698 4.417 2.793h5.888c-.543-6.671-6.121-7.835-10.305-7.835-5.888 0-9.916 2.87-9.916 7.68 0 4.421 3.486 6.283 6.895 6.826l5.036.853c1.627.31 2.402 1.086 2.402 2.017 0 1.319-1.705 1.94-4.107 1.94-2.711 0-4.648-.854-5.035-3.492l-5.888-.077c.464 6.749 5.655 8.688 10.768 8.688 5.889 0 10.382-2.56 10.382-7.68-.155-4.421-3.486-6.05-7.128-6.748zm-201.588-7.99c-1.782-1.164-4.106-1.94-6.663-1.94-6.43 0-11.621 5.43-11.621 12.18 0 6.748 5.19 12.255 11.621 12.255 2.557 0 4.881-.698 6.663-1.939v1.319h6.353V10h-6.353v12.722zm0 13.963c-1.55 2.172-3.641 2.715-5.733 2.715-3.641 0-6.198-2.948-6.198-6.439 0-3.49 2.557-6.36 6.198-6.36 2.092 0 4.183.62 5.733 2.714v7.37zm52.14-15.903c-7.282 0-12.396 5.043-12.396 12.257 0 7.136 5.036 12.178 12.396 12.178 7.283 0 12.319-5.042 12.319-12.178.077-7.214-5.036-12.257-12.319-12.257zm0 18.618c-3.564 0-5.965-2.638-5.965-6.361 0-3.801 2.401-6.439 5.965-6.439 3.487 0 5.966 2.638 5.966 6.439 0 3.8-2.402 6.36-5.966 6.36zm72.361-.078c-2.401 0-4.106-1.241-4.106-3.956v-8.61h8.522v-5.353h-8.522v-8.455h-6.353v8.455h-4.958v5.353h4.958v8.61c0 5.973 3.487 9.852 9.762 9.852 1.704 0 3.486-.233 5.578-1.009l-.852-5.818c-1.24.543-2.634.931-4.029.931zm19.214-18.54c-7.128 0-12.009 5.353-12.009 12.257s4.959 12.178 12.396 12.178c5.114 0 9.297-2.56 10.847-6.903h-7.05c-.853 1.008-2.015 1.318-3.719 1.318-3.641 0-5.423-2.017-5.888-4.731h17.044c1.24-8.068-3.641-14.119-11.621-14.119zm-5.268 9.774c.62-2.404 2.246-4.344 5.345-4.344 2.944 0 4.881 1.397 5.191 4.345h-10.536zm-63.064-9.153h-6.353v23.272h6.353V30.556c2.014-2.25 4.648-3.336 8.212-3.491v-6.05c-3.487 0-6.121 1.085-8.212 3.102v-2.715zm24.404 9.309l-4.184-.698c-2.246-.388-2.866-1.397-2.866-2.328 0-1.086 1.162-1.939 3.641-1.939 2.247 0 4.261.698 4.416 2.793h5.888c-.542-6.671-6.12-7.835-10.304-7.835-5.888 0-9.917 2.87-9.917 7.68 0 4.421 3.487 6.283 6.896 6.826l5.035.853c1.627.31 2.402 1.086 2.402 2.017 0 1.319-1.704 1.94-4.106 1.94-2.712 0-4.648-.854-5.036-3.492l-5.888-.077c.465 6.749 5.656 8.688 10.769 8.688 5.888 0 10.382-2.56 10.382-7.68-.155-4.421-3.487-6.05-7.128-6.748zM29.146 12.581C29.146 5.642 34.719 0 41.573 0 48.427 0 54 5.642 54 12.581V37.42C54 44.358 48.427 50 41.573 50c-6.854 0-12.427-5.642-12.427-12.581V12.58zM24.854 32.944c0 6.94-5.573 12.581-12.427 12.581C5.573 45.525 0 39.883 0 32.945c0-6.94 5.573-12.582 12.427-12.582 6.854 0 12.427 5.642 12.427 12.581z" fill="#FF6A5A"/></svg>